<?xml version="1.0" standalone="no"?>
<!DOCTYPE svg PUBLIC "-//W3C//DTD SVG 20010904//EN"
 "http://www.w3.org/TR/2001/REC-SVG-20010904/DTD/svg10.dtd">
<svg version="1.0" xmlns="http://www.w3.org/2000/svg"
 width="1080.000000pt" height="1080.000000pt" viewBox="0 0 1080.000000 1080.000000"
 preserveAspectRatio="xMidYMid meet">
<metadata>
Created by potrace 1.14, written by Peter Selinger 2001-2017
</metadata>
<g transform="translate(0.000000,1080.000000) scale(0.100000,-0.100000)"
fill="#000000" stroke="none">
<path d="M1649 10796 c-2 -2 -31 -7 -64 -10 -334 -34 -701 -197 -968 -431
-135 -118 -291 -306 -373 -451 -123 -217 -192 -420 -229 -671 -21 -146 -21
-7545 0 -7673 50 -298 132 -518 282 -750 128 -197 324 -391 530 -524 218 -141
512 -246 768 -274 105 -12 7605 -11 7645 1 14 4 41 10 60 13 427 74 825 306
1093 636 66 82 129 173 163 233 90 164 141 287 183 447 29 109 34 135 51 278
5 36 7 1759 6 3830 -2 3505 -3 3771 -19 3845 -9 44 -20 96 -23 115 -3 19 -8
38 -10 42 -2 3 -15 45 -29 93 -14 47 -43 124 -65 171 -22 47 -40 88 -40 90 0
15 -141 237 -191 301 -83 105 -258 275 -356 346 -242 173 -486 273 -818 333
-41 8 -7588 17 -7596 10z"/>
</g>
</svg>
